<svg width="24" height="24" viewBox="0 0 24 24" fill="none" xmlns="http://www.w3.org/2000/svg">
<path d="M20.6239 4.54561V20.9487C20.6239 21.7897 20.2874 22.5543 19.7469 23.1069C19.2064 23.6594 18.4586 24 17.636 24H6.36403C5.5414 24 4.79357 23.6594 4.25309 23.1069C3.71261 22.5543 3.37948 21.7897 3.37948 20.9487V4.54561H1.73424C1.32972 4.54561 1 4.21199 1 3.79496C1 3.38141 1.32972 3.04778 1.73424 3.04778H22.2692C22.6737 3.04778 23 3.38141 23 3.79496C23 4.21199 22.6737 4.54561 22.2692 4.54561H20.6239ZM13.8594 8.06255C13.8594 7.64552 14.1891 7.31191 14.5936 7.31191C14.9981 7.31191 15.3279 7.64552 15.3279 8.06255V18.3597C15.3279 18.7732 14.9981 19.1103 14.5936 19.1103C14.1891 19.1103 13.8594 18.7732 13.8594 18.3597V8.06255ZM8.64833 8.06255C8.64833 7.64552 8.97806 7.31191 9.38257 7.31191C9.78708 7.31191 10.1168 7.64552 10.1168 8.06255V18.3597C10.1168 18.7732 9.78708 19.1103 9.38257 19.1103C8.97806 19.1103 8.64833 18.7732 8.64833 18.3597V8.06255ZM8.20643 1.5013C7.80192 1.5013 7.47219 1.16421 7.47219 0.750655C7.47219 0.337102 7.80192 0 8.20643 0H15.7936C16.1981 0 16.5278 0.337102 16.5278 0.750655C16.5278 1.16421 16.1981 1.5013 15.7936 1.5013H8.20643ZM19.1555 4.54561H4.84456V20.9487C4.84456 21.3762 5.01792 21.7619 5.29326 22.0434C5.5686 22.3249 5.94592 22.5022 6.36403 22.5022H17.636C18.0541 22.5022 18.4348 22.3249 18.7101 22.0434C18.9855 21.7619 19.1555 21.3762 19.1555 20.9487V4.54561Z" fill="#D20000"/>
</svg>
