<svg width="40" height="40" viewBox="0 0 40 40" fill="none" xmlns="http://www.w3.org/2000/svg">
<path fill-rule="evenodd" clip-rule="evenodd" d="M3.95181 0.113602C3.59701 0.272051 3.27566 0.611392 3.13899 0.971924C3.06747 1.16043 3.03614 6.68447 3.03614 19.096V36.9488L1.98265 36.9815C1.10101 37.0087 0.885687 37.0464 0.663325 37.2126C0.157687 37.5903 0 37.8981 0 38.507C0 39.1162 0.157879 39.424 0.663614 39.8014L0.929831 40H20H39.0702L39.3364 39.8014C39.8421 39.424 40 39.1162 40 38.507C40 37.8981 39.8423 37.5903 39.3367 37.2126C39.1143 37.0465 38.899 37.0087 38.0183 36.9815L36.9657 36.9489L36.9406 22.0346C36.9157 7.14074 36.9154 7.11994 36.7169 6.85429C36.6076 6.70797 36.3985 6.49896 36.2521 6.38973C35.9913 6.19516 35.8714 6.19053 30.3106 6.16482L24.6354 6.13852L24.6068 3.54689C24.58 1.1036 24.5669 0.940042 24.3796 0.689509C24.2703 0.543293 24.0611 0.334371 23.9147 0.225143C23.6505 0.0279722 23.5788 0.0263348 13.9448 0.00552937C6.00414 -0.0117122 4.18843 0.0079372 3.95181 0.113602ZM21.5654 17.9835C21.5904 32.8859 21.5907 32.9066 21.7891 33.1722C22.1667 33.6777 22.4748 33.8354 23.0843 33.8354C23.6939 33.8354 24.0019 33.6777 24.3796 33.1722C24.5774 32.9075 24.5784 32.8548 24.6036 21.0658L24.6287 9.22524H29.2542H33.8795V23.0956V36.9659H26.1731H18.4667L18.4382 34.372C18.4113 31.9265 18.3983 31.763 18.2109 31.5124C18.1016 31.3662 17.8924 31.1573 17.746 31.0481C17.4882 30.8556 17.366 30.8494 13.8313 30.8494C10.2967 30.8494 10.1745 30.8556 9.91663 31.0481C9.77022 31.1573 9.56106 31.3662 9.45176 31.5124C9.26439 31.763 9.25137 31.9265 9.22448 34.372L9.19595 36.9659H7.65822H6.12048V20.0133V3.06066H13.8305H21.5403L21.5654 17.9835ZM9.20482 7.6841V9.22524H10.747H12.2892V7.6841V6.14295H10.747H9.20482V7.6841ZM15.3735 7.6841V9.22524H16.9157H18.4578V7.6841V6.14295H16.9157H15.3735V7.6841ZM9.20482 13.8487V15.3898H10.747H12.2892V13.8487V12.3075H10.747H9.20482V13.8487ZM15.3735 13.8487V15.3898H16.9157H18.4578V13.8487V12.3075H16.9157H15.3735V13.8487ZM27.7108 13.8487V15.3898H29.253H30.7952V13.8487V12.3075H29.253H27.7108V13.8487ZM9.20482 20.0133V21.5544H10.747H12.2892V20.0133V18.4721H10.747H9.20482V20.0133ZM15.3735 20.0133V21.5544H16.9157H18.4578V20.0133V18.4721H16.9157H15.3735V20.0133ZM27.7108 20.0133V21.5544H29.253H30.7952V20.0133V18.4721H29.253H27.7108V20.0133ZM9.20482 26.1778V27.719H10.747H12.2892V26.1778V24.6367H10.747H9.20482V26.1778ZM15.3735 26.1778V27.719H16.9157H18.4578V26.1778V24.6367H16.9157H15.3735V26.1778ZM27.7108 26.1778V27.719H29.253H30.7952V26.1778V24.6367H29.253H27.7108V26.1778ZM27.7108 32.3424V33.8836H29.253H30.7952V32.3424V30.8013H29.253H27.7108V32.3424ZM15.3735 35.4247V36.9659H13.8313H12.2892V35.4247V33.8836H13.8313H15.3735V35.4247Z" fill="#70808A" fill-opacity="0.7"/>
</svg>
